<svg xmlns="http://www.w3.org/2000/svg" width="18" height="24" fill="none"><g clip-path="url(#a)"><path fill="#2E2F42" d="M15 6H3c-.825 0-1.4925.675-1.4925 1.5l-.0075 9c0 .825.675 1.5 1.5 1.5h12c.825 0 1.5-.675 1.5-1.5v-9c0-.825-.675-1.5-1.5-1.5Zm-.3 3.1875-5.3025 3.315c-.24.15-.555.15-.795 0L3.3 9.1875c-.1875-.12-.3-.3225-.3-.54 0-.5025.5475-.8025.975-.54L9 11.25l5.025-3.1425c.4275-.2625.975.0375.975.54 0 .2175-.1125.42-.3.54Z"/></g><defs><clipPath id="a"><path fill="#fff" d="M0 0h18v24H0z"/></clipPath></defs></svg>