<svg xmlns="http://www.w3.org/2000/svg" width="18" height="24" fill="none"><g clip-path="url(#a)"><path fill="#2E2F42" d="m14.7263 13.8651-1.8382-.2099c-.4414-.0506-.8756.1014-1.1868.4125l-1.3316 1.3316c-2.048-1.0421-3.72694-2.7138-4.76903-4.769l1.3388-1.33886c.31118-.31119.46316-.74539.4125-1.18684L7.1421 6.28092C7.05526 5.55 6.44013 5 5.70198 5H4.45002c-.81776 0-1.49802.68026-1.44736 1.49802C3.38621 12.6783 8.32894 17.6138 14.5019 17.9973c.8178.0507 1.498-.6296 1.498-1.4473v-1.252c.0073-.7309-.5427-1.346-1.2736-1.4329Z"/></g><defs><clipPath id="a"><path fill="#fff" d="M0 0h18v24H0z"/></clipPath></defs></svg>